# xmcd CD database file
# Copyright (C) 1997 Ti Kan
# 
# Track frame offsets:
#     182
#     16102
#     28665
#     40572
#     50292
#     70337
#     85797
#     94585
#     109457
#     124995
#     138565
#     149807
#     166355
#     179735
#     193172
#     206392
# 
# Disc length: 2920 seconds
# 
# Revision: 1
# Processed by: cddbd v1.5.2PL0 Copyright (c) Steve Scherf et al.
# Submitted via: DiscPlay 4.0.4
# 
DISCID=e90b6610
DTITLE=Tina Turner - Tina Turner - The Country Side Of
DYEAR=1989
DGENRE=Pop-Folk
TTITLE0=Good Hearted Woman
TTITLE1=Stand By Your Man
TTITLE2=Soul Deep
TTITLE3=Ain't Nobody's Business
TTITLE4=Lovin' Him Was Easier
TTITLE5=We Had It All
TTITLE6=Funky Mule
TTITLE7=It Sho Ain't Me
TTITLE8=If This Is Our Last Time
TTITLE9=It's Crazy Baby
TTITLE10=You're So Fine
TTITLE11=Lay It Down
TTITLE12=Am I A Fool In Love
TTITLE13=Freedom To Stay
TTITLE14=If It's All Right With You
TTITLE15=You Ain't Woman Enough To Take My Man
EXTD=
EXTT0=
EXTT1=
EXTT2=
EXTT3=
EXTT4=
EXTT5=
EXTT6=
EXTT7=
EXTT8=
EXTT9=
EXTT10=
EXTT11=
EXTT12=
EXTT13=
EXTT14=
EXTT15=
PLAYORDER=
